# Blender 3.6.5
# www.blender.org
mtllib untitled.mtl
o Cube
v -0.029268 -0.507291 1.450164
v -0.029268 -0.507291 -1.475604
v 0.129078 -0.507291 -1.475604
v 0.129078 -0.507291 1.450164
v -0.029268 -1.701539 0.024894
v -0.029268 -0.507291 1.450164
v -0.029268 -1.531370 0.380700
v -0.029268 -1.313170 0.696975
v -0.029268 -1.070435 0.986667
v -0.029268 -0.805425 1.247076
v -0.029268 -0.507291 -1.475604
v -0.029268 -1.701539 -0.050334
v -0.029268 -0.805425 -1.272517
v -0.029268 -1.070435 -1.012107
v -0.029268 -1.313170 -0.722416
v -0.029268 -1.531370 -0.406141
v 0.129078 -0.507291 1.450164
v 0.129078 -1.701539 0.024894
v 0.129078 -0.805425 1.247076
v 0.129078 -1.070435 0.986667
v 0.129078 -1.313170 0.696975
v 0.129078 -1.531370 0.380700
v 0.129078 -1.701539 -0.050334
v 0.129078 -0.507291 -1.475604
v 0.129078 -1.531370 -0.406141
v 0.129078 -1.313170 -0.722416
v 0.129078 -1.070435 -1.012107
v 0.129078 -0.805425 -1.272517
v -0.029268 0.073038 1.450164
v -0.029268 1.808311 0.003661
v -0.029268 1.685663 1.428153
v -0.029268 1.808311 -0.029102
v -0.029268 0.073038 -1.475604
v -0.029268 1.685663 -1.470125
v 0.129078 1.808311 0.003661
v 0.129078 0.073038 1.450164
v 0.129078 1.685663 1.428153
v 0.129078 0.073038 -1.475604
v 0.129078 1.808311 -0.029102
v 0.129078 1.685663 -1.470125
v -0.174977 -0.563192 1.596016
v -0.174977 -0.563192 -1.621456
v 0.274787 -0.563192 -1.621456
v 0.274787 -0.563192 1.596016
v -0.174977 -1.876508 0.028644
v -0.174977 -1.689373 0.419925
v -0.174977 -1.449418 0.767733
v -0.174977 -1.182482 1.086308
v -0.174977 -0.891050 1.372680
v -0.174977 -1.876508 -0.054084
v -0.174977 -0.891050 -1.398121
v -0.174977 -1.182482 -1.111748
v -0.174977 -1.449418 -0.793173
v -0.174977 -1.689373 -0.445365
v 0.274787 -1.876508 0.028644
v 0.274787 -0.891050 1.372680
v 0.274787 -1.182482 1.086308
v 0.274787 -1.449418 0.767733
v 0.274787 -1.689373 0.419925
v 0.274787 -1.876508 -0.054084
v 0.274787 -1.689373 -0.445365
v 0.274787 -1.449418 -0.793173
v 0.274787 -1.182482 -1.111748
v 0.274787 -0.891050 -1.398121
v -0.174977 0.074997 1.596016
v -0.174977 1.983280 0.005294
v -0.174977 1.848404 1.571810
v -0.174977 1.983280 -0.030735
v -0.174977 0.074997 -1.621456
v -0.174977 1.848403 -1.615431
v 0.274787 1.983280 0.005294
v 0.274787 0.074997 1.596016
v 0.274787 1.848403 1.571810
v 0.274787 0.074997 -1.621456
v 0.274787 1.983280 -0.030735
v 0.274787 1.848404 -1.615431
v 0.274787 -0.563192 1.412084
v 0.274787 -0.507291 -1.475604
v 0.274787 -0.563192 -1.437525
v 0.274787 1.685663 -1.470125
v 0.274787 -0.507291 1.450164
v 0.274787 1.808311 -0.029102
v 0.274787 0.073038 -1.475604
v 0.274787 1.808311 0.003661
v 0.274787 0.073038 1.450164
v 0.274787 1.685663 1.428153
v -0.174977 -0.507291 1.450164
v -0.174977 -0.563192 -1.437525
v -0.174977 -0.563192 1.412084
v -0.174977 1.685663 1.428153
v -0.174977 0.073038 1.450164
v -0.174977 1.808311 0.003661
v -0.174977 1.808311 -0.029102
v -0.174977 -0.507291 -1.475604
v -0.174977 0.073038 -1.475604
v -0.174977 1.685663 -1.470125
v 0.274787 -1.701539 0.024894
v 0.274787 -1.701539 -0.050334
v 0.274787 -1.531370 0.380700
v 0.274787 -1.531370 -0.406141
v 0.274787 -1.313170 0.696975
v 0.274787 -1.313170 -0.722416
v 0.274787 -1.070435 0.986667
v 0.274787 -1.070435 -1.012107
v 0.274787 -0.805425 1.247076
v 0.274787 -0.805425 -1.272517
v -0.174977 -1.701539 0.024894
v -0.174977 -1.701539 -0.050334
v -0.174977 -1.531370 0.380700
v -0.174977 -1.531370 -0.406141
v -0.174977 -1.313170 0.696975
v -0.174977 -1.313170 -0.722416
v -0.174977 -1.070435 0.986667
v -0.174977 -1.070435 -1.012107
v -0.174977 -0.805425 1.247076
v -0.174977 -0.805425 -1.272517
vn -0.0000 1.0000 -0.0000
vn 1.0000 -0.0000 -0.0000
vn -1.0000 -0.0000 -0.0000
vn -0.0000 -0.0000 -1.0000
vn -0.0000 -1.0000 -0.0000
vn -0.0000 -0.9021 -0.4315
vn -0.0000 -0.8231 -0.5679
vn -0.0000 -0.7665 -0.6423
vn -0.0000 -0.7009 -0.7133
vn -0.0000 -0.5630 -0.8265
vn -0.0000 -0.9021 0.4315
vn -0.0000 -0.8231 0.5679
vn -0.0000 -0.7665 0.6423
vn -0.0000 -0.7009 0.7133
vn -0.0000 -0.5630 0.8265
vn -0.0000 0.9964 -0.0848
vn -0.0000 0.0034 -1.0000
vn -0.0000 0.9963 0.0858
vn -0.0000 0.0136 0.9999
vn -0.0000 -0.0000 1.0000
vn -0.0000 0.9021 0.4315
vn -0.0000 0.8231 0.5679
vn -0.0000 0.7665 0.6423
vn -0.0000 0.7009 0.7133
vn -0.0000 0.5630 0.8265
vn -0.0000 0.9021 -0.4315
vn -0.0000 0.8231 -0.5679
vn -0.0000 0.7665 -0.6423
vn -0.0000 0.7009 -0.7133
vn -0.0000 0.5630 -0.8265
vn -0.0000 -0.9964 0.0848
vn -0.0000 -0.0034 1.0000
vn -0.0000 -0.9963 -0.0858
vn -0.0000 -0.0136 -0.9999
vt 0.625000 0.623600
vt 0.875000 0.623600
vt 0.875000 0.626400
vt 0.625000 0.626400
vt 0.460064 0.500000
vt 0.501400 0.500000
vt 0.616264 0.508736
vt 0.616264 0.741264
vt 0.501400 0.750000
vt 0.460064 0.750000
vt 0.460064 0.000000
vt 0.501400 0.000000
vt 0.616264 0.008736
vt 0.625000 0.123600
vt 0.625000 0.126400
vt 0.616264 0.241264
vt 0.501400 0.250000
vt 0.460064 0.250000
vt 0.460064 1.000000
vt 0.375000 0.621786
vt 0.387121 0.591383
vt 0.402663 0.564358
vt 0.419952 0.539605
vt 0.438828 0.517353
vt 0.438828 0.732647
vt 0.419952 0.710395
vt 0.402663 0.685642
vt 0.387121 0.658617
vt 0.375000 0.628214
vt 0.125000 0.621786
vt 0.125000 0.628214
vt 0.125000 0.591383
vt 0.375000 0.591383
vt 0.125000 0.564358
vt 0.375000 0.564358
vt 0.125000 0.500000
vt 0.375000 0.500000
vt 0.375000 0.250000
vt 0.438828 0.250000
vt 0.438828 0.500000
vt 0.375000 0.658617
vt 0.125000 0.658617
vt 0.375000 0.685642
vt 0.125000 0.685642
vt 0.375000 0.750000
vt 0.125000 0.750000
vt 0.375000 1.000000
vt 0.438828 0.750000
vt 0.438828 1.000000
vt 0.375000 0.121786
vt 0.387121 0.091383
vt 0.402663 0.064358
vt 0.419952 0.039605
vt 0.438828 0.017353
vt 0.438828 0.232647
vt 0.419952 0.210395
vt 0.402663 0.185642
vt 0.387121 0.158617
vt 0.375000 0.128214
vt 0.625000 0.500000
vt 0.875000 0.500000
vt 0.625000 0.250000
vt 0.875000 0.750000
vt 0.625000 0.750000
vt 0.625000 1.000000
vt 0.501400 1.000000
vt 0.460064 0.735708
vt 0.463685 0.738654
vt 0.501273 0.738357
vt 0.605723 0.731181
vt 0.613667 0.626272
vt 0.613667 0.623858
vt 0.605723 0.518739
vt 0.501273 0.511730
vt 0.463685 0.511356
vt 0.460064 0.514292
vt 0.463685 0.011346
vt 0.460064 0.014292
vt 0.460064 0.235708
vt 0.463685 0.238644
vt 0.501273 0.238270
vt 0.605723 0.231261
vt 0.613667 0.126142
vt 0.613667 0.123728
vt 0.605723 0.018819
vt 0.501273 0.011643
vt 0.444374 0.527113
vt 0.427210 0.547347
vt 0.411488 0.569856
vt 0.397355 0.594431
vt 0.386333 0.622077
vt 0.386333 0.627923
vt 0.397355 0.655569
vt 0.411488 0.680144
vt 0.427210 0.702653
vt 0.444374 0.722887
vt 0.444374 0.027113
vt 0.427210 0.047347
vt 0.411488 0.069856
vt 0.397355 0.094431
vt 0.386333 0.122077
vt 0.386333 0.127923
vt 0.397355 0.155569
vt 0.411488 0.180144
vt 0.427210 0.202653
vt 0.444374 0.222887
vt 0.811572 0.623600
vt 0.688428 0.623600
vt 0.688428 0.626400
vt 0.811572 0.626400
vt 0.460064 0.313428
vt 0.460064 0.436572
vt 0.501400 0.436572
vt 0.501400 0.313428
vt 0.311572 0.628214
vt 0.311572 0.621786
vt 0.188428 0.621786
vt 0.188428 0.628214
vt 0.311572 0.591383
vt 0.188428 0.591383
vt 0.311572 0.564358
vt 0.188428 0.564358
vt 0.311572 0.500000
vt 0.188428 0.500000
vt 0.375000 0.436572
vt 0.438828 0.436572
vt 0.438828 0.313428
vt 0.375000 0.313428
vt 0.456082 0.436572
vt 0.456082 0.313428
vt 0.311572 0.658617
vt 0.188428 0.658617
vt 0.311572 0.685642
vt 0.188428 0.685642
vt 0.311572 0.750000
vt 0.188428 0.750000
vt 0.438828 0.813428
vt 0.375000 0.813428
vt 0.375000 0.936572
vt 0.438828 0.936572
vt 0.456082 0.813428
vt 0.456082 0.936572
vt 0.460064 0.936572
vt 0.460064 0.813428
vt 0.811572 0.500000
vt 0.688428 0.500000
vt 0.625000 0.436572
vt 0.625000 0.313428
vt 0.688428 0.750000
vt 0.811572 0.750000
vt 0.625000 0.936572
vt 0.625000 0.813428
vt 0.501400 0.813428
vt 0.501400 0.936572
s 0
f 39/1/1 32/2/1 30/3/1 35/4/1
f 3/5/2 38/6/2 40/7/2 39/1/2 35/4/2 37/8/2 36/9/2 4/10/2
f 1/11/3 29/12/3 31/13/3 30/14/3 32/15/3 34/16/3 33/17/3 2/18/3
f 17/10/1 4/10/1 1/19/1 6/19/1
f 2/18/4 33/17/4 38/6/4 3/5/4
f 11/18/1 2/18/1 3/5/1 24/5/1
f 23/20/2 25/21/2 26/22/2 27/23/2 28/24/2 24/5/2 3/5/2 4/10/2 17/10/2 19/25/2 20/26/2 21/27/2 22/28/2 18/29/2
f 12/30/5 23/20/5 18/29/5 5/31/5
f 23/20/6 12/30/6 16/32/6 25/33/6
f 25/33/7 16/32/7 15/34/7 26/35/7
f 26/35/8 15/34/8 14/36/8 27/37/8
f 27/37/9 14/38/9 13/39/9 28/40/9
f 28/40/10 13/39/10 11/18/10 24/5/10
f 5/31/11 18/29/11 22/41/11 7/42/11
f 7/42/12 22/41/12 21/43/12 8/44/12
f 8/44/13 21/43/13 20/45/13 9/46/13
f 9/47/14 20/45/14 19/48/14 10/49/14
f 10/49/15 19/48/15 17/10/15 6/19/15
f 5/50/3 7/51/3 8/52/3 9/53/3 10/54/3 6/11/3 1/11/3 2/18/3 11/18/3 13/55/3 14/56/3 15/57/3 16/58/3 12/59/3
f 32/2/16 39/1/16 40/60/16 34/61/16
f 34/62/17 40/60/17 38/6/17 33/17/17
f 35/4/18 30/3/18 31/63/18 37/64/18
f 37/64/19 31/65/19 29/66/19 36/9/19
f 4/10/20 36/9/20 29/66/20 1/19/20
f 75/1/1 68/2/1 66/3/1 71/4/1
f 43/5/2 74/6/2 76/7/2 75/1/2 71/4/2 73/8/2 72/9/2 44/10/2 77/67/2 81/68/2 85/69/2 86/70/2 84/71/2 82/72/2 80/73/2 83/74/2 78/75/2 79/76/2
f 87/77/3 89/78/3 41/11/3 65/12/3 67/13/3 66/14/3 68/15/3 70/16/3 69/17/3 42/18/3 88/79/3 94/80/3 95/81/3 96/82/3 93/83/3 92/84/3 90/85/3 91/86/3
f 42/18/4 69/17/4 74/6/4 43/5/4
f 77/67/2 44/10/2 56/25/2 57/26/2 58/27/2 59/28/2 55/29/2 60/20/2 61/21/2 62/22/2 63/23/2 64/24/2 43/5/2 79/76/2 106/87/2 104/88/2 102/89/2 100/90/2 98/91/2 97/92/2 99/93/2 101/94/2 103/95/2 105/96/2
f 50/30/5 60/20/5 55/29/5 45/31/5
f 60/20/6 50/30/6 54/32/6 61/33/6
f 61/33/7 54/32/7 53/34/7 62/35/7
f 62/35/8 53/34/8 52/36/8 63/37/8
f 63/37/9 52/38/9 51/39/9 64/40/9
f 64/40/10 51/39/10 42/18/10 43/5/10
f 45/31/11 55/29/11 59/41/11 46/42/11
f 46/42/12 59/41/12 58/43/12 47/44/12
f 47/44/13 58/43/13 57/45/13 48/46/13
f 48/47/14 57/45/14 56/48/14 49/49/14
f 49/49/15 56/48/15 44/10/15 41/19/15
f 88/79/3 42/18/3 51/55/3 52/56/3 53/57/3 54/58/3 50/59/3 45/50/3 46/51/3 47/52/3 48/53/3 49/54/3 41/11/3 89/78/3 115/97/3 113/98/3 111/99/3 109/100/3 107/101/3 108/102/3 110/103/3 112/104/3 114/105/3 116/106/3
f 68/2/16 75/1/16 76/60/16 70/61/16
f 70/62/17 76/60/17 74/6/17 69/17/17
f 71/4/18 66/3/18 67/63/18 73/64/18
f 73/64/19 67/65/19 65/66/19 72/9/19
f 44/10/20 72/9/20 65/66/20 41/19/20
f 93/107/5 82/108/5 84/109/5 92/110/5
f 94/111/20 78/112/20 83/113/20 95/114/20
f 97/115/1 98/116/1 108/117/1 107/118/1
f 108/117/21 98/116/21 100/119/21 110/120/21
f 100/119/22 102/121/22 112/122/22 110/120/22
f 102/121/23 104/123/23 114/124/23 112/122/23
f 104/125/24 106/126/24 116/127/24 114/128/24
f 106/126/25 79/129/25 78/112/25 94/111/25 88/130/25 116/127/25
f 99/131/26 97/115/26 107/118/26 109/132/26
f 101/133/27 99/131/27 109/132/27 111/134/27
f 103/135/28 101/133/28 111/134/28 113/136/28
f 105/137/29 103/138/29 113/139/29 115/140/29
f 77/141/30 105/137/30 115/140/30 89/142/30 87/143/30 81/144/30
f 96/145/31 80/146/31 82/108/31 93/107/31
f 83/113/32 80/147/32 96/148/32 95/114/32
f 86/149/33 90/150/33 92/110/33 84/109/33
f 90/151/34 86/152/34 85/153/34 91/154/34
f 91/154/4 85/153/4 81/144/4 87/143/4
